<?xml version="1.0" encoding="UTF-8"?>
<svg id="Layer_1" data-name="Layer 1" xmlns="http://www.w3.org/2000/svg" viewBox="0 0 1874 471">
  <path d="M1687,0c.12.28.21.8.36.82,3.67.43,7.39.55,11.01,1.24,6,1.14,12.03,2,17.98,3.55,4.51,1.18,8.99,2.61,13.6,3.5,3.12.61,6.04,2.25,9.07,3.4,7.8,2.96,15.36,6.42,22.65,10.49,7.38,4.12,14.58,8.54,21.35,13.59,2.99,2.23,5.44,5.22,8.5,7.31,4.55,3.11,8.17,7.15,11.84,11.09,5.35,5.73,10.13,11.93,14.78,18.3,5.38,7.38,9.79,15.21,13.92,23.27,4.09,7.99,7.35,16.31,9.88,24.89,1.68,5.68,3.22,11.4,4.17,17.3.73,4.55,1.24,9.16,2.09,13.65.91,4.76.47,9.43.79,14.12.1,1.42.5,2.8.78,4.13.42,2.03.69,4.37-.42,6.7-.78,1.63-.27,3.87-.36,5.84-.15,3.27.19,6.67-.63,9.76-.79,2.97.61,6.12-1.27,8.97-.61.93.03,2.62-.14,3.93-.13,1.05-.87,2.05-.92,3.09-.19,3.82-1.68,7.33-2.56,10.97-1.16,4.79-2.93,9.43-4.49,14.12-.78,2.34-1.52,4.7-2.51,6.96-3.54,8.09-7.47,15.95-12.21,23.46-3.55,5.63-7.33,11.01-11.38,16.28-4.48,5.84-9.16,11.47-14.59,16.41-8.97,8.16-18.2,15.92-28.78,22.13-6.3,3.7-12.62,7.38-19.14,10.62-6.32,3.14-13.01,5.64-19.74,7.82-4.7,1.52-9.51,3.05-14.28,4.04-4.45.92-9,1.88-13.6,2.4-5.72.65-11.46,1.32-17.15,2.09-4.58.62-9.08.57-13.62.73-4.49.16-9,.13-13.49-.01-2.04-.07-4.05-.75-6.09-.92-1.99-.17-4.06.29-5.98-.1-4.37-.91-8.85-1.12-13.16-2.05-9.24-2.01-18.45-4.18-27.4-7.39-5.52-1.98-10.92-4.22-16.31-6.49-9.49-4-18.13-9.52-26.75-15.04-3.34-2.14-6.39-4.74-9.53-7.19-7.71-6.02-14.41-13.13-21.08-20.21-5.34-5.67-10.02-11.94-14.25-18.54-3.54-5.51-7.04-11.04-9.89-16.91-3.97-8.18-7.34-16.64-10.02-25.33-1.7-5.51-3.31-11.03-4.2-16.8-.59-3.89-1.32-7.79-2.05-11.65-.58-3.08-.23-6.16-.86-9.11-1.79-8.34-.37-16.75-1.01-25.09-.18-2.4,1.17-4.32,1.1-6.59-.07-2.16-.57-4.54.13-6.44.77-2.09.82-4.06.85-6.14.02-1.92.9-3.64,1.15-5.57.59-4.63,1.67-9.29,3.04-13.72,1.31-4.24,2.79-8.49,4.3-12.69,2.5-6.97,5.22-13.9,8.65-20.4,3.49-6.6,7.39-13.06,11.86-19.1,2.48-3.35,5.12-6.57,7.69-9.84,5.54-7.07,12.25-12.95,18.55-19.23,3.59-3.58,7.99-6.33,11.98-9.5,4.36-3.46,9.18-6.12,13.68-9.31.26-.18.47-.48.76-.58,3.71-1.25,6.78-3.74,10.27-5.39,7.51-3.56,15.13-6.92,23.01-9.6,3.37-1.15,6.86-1.92,10.24-3.05,3.39-1.14,6.94-1.54,10.32-2.82,2.47-.93,5.34-.76,8.02-1.16,1.71-.25,3.38-.72,5.09-.97,1.72-.25,3.37-.01,5.16-.85,1.64-.77,3.93-.1,5.92-.21.45-.02.87-.62,1.3-.95,2,0,4,0,6,0,.09,1.5,1.24.85,2,1h19c.76-.15,1.91.5,2-1C1683.67,0,1685.33,0,1687,0ZM1670.42,337c4.89.69,11.05.16,16.84-1.21,6.84-1.61,13.59-3.89,19.94-7.31,5.39-2.91,10.9-5.77,15.36-9.8,5.84-5.27,11.72-10.62,16.43-17.09,4.43-6.09,8.52-12.34,12.08-19,2.85-5.33,5.01-10.92,7.44-16.42,2.13-4.83,3.47-9.89,5.34-14.78,1.87-4.89,2.55-10.23,4.08-15.3.77-2.56.12-5.67,1.24-7.98,1.33-2.73.42-5.59,1.65-8.33,1.04-2.31.21-5.29,1.02-8.05.79-2.68-.17-5.79,1.16-8.54-.76-7.41,1.44-14.68,1.01-22.08-.53-9.02.86-18.08-.92-27.1-.87-4.42.44-9.04-.95-13.61-.76-2.5-.37-5.35-1.02-8.07-.62-2.59-.67-5.4-.94-8.07-.46-4.62-2.46-8.96-2.19-13.65-2.05-2.93-1.82-6.56-2.82-9.81-1-3.25-2.14-6.46-3.16-9.71-3.5-11.09-7.82-21.73-13.89-31.77-5.16-8.54-10.54-16.75-17.87-23.57-3.59-3.34-6.71-7.17-10.87-9.94-6.75-4.48-13.67-8.58-21.34-11.25-2.77-.97-5.71-1.5-8.41-2.63-2.98-1.24-6.18-1.18-9.23-1.76-4.02-.76-8.3-.33-12.46-.14-4.03.18-8.01,0-12.12.74-6.82,1.23-13.4,3.01-19.69,5.69-9.07,3.85-17.02,9.58-24.27,16.21-4.81,4.4-8.9,9.43-12.81,14.66-3.77,5.05-7.03,10.35-10.07,15.84-3.52,6.36-6.2,13.09-8.96,19.79-2.6,6.31-4.43,12.87-6.03,19.5-.81,3.35-1.45,6.77-2.27,10.09-.97,3.93-1.42,7.97-2.61,11.87-.68,2.21-.21,4.69-.97,7.1-.69,2.2-.69,4.71-.98,7.06-.79,6.47-.88,13.03-1.13,19.56-.13,3.49-.14,7,0,10.5.44,10.86-.69,21.72.81,32.6.78,5.69,1.41,11.45,1.96,17.16.47,4.8,1.77,9.39,2.38,14.13.25,1.98.36,4.15,1.02,6.03.84,2.38,1.26,4.81,1.86,7.23.63,2.56,1.31,5.21,2.16,7.61,1.38,3.89,2.36,7.97,4.29,11.71,1.97,3.82,3.19,8.01,5.07,11.89,1.95,4.04,4.06,8,6.32,11.9,4.41,7.63,9.73,14.5,15.58,21.01,2.84,3.15,6.08,5.9,9.38,8.6,4.43,3.63,9.1,6.8,14.12,9.46,5.47,2.89,11.13,5.44,17.22,6.66,4.64.93,9.17,2.61,14.03,2.39,2.33-.1,4.66-.02,8.2-.02Z" style="fill: #04b3ad; stroke-width: 0px;"/>
  <path d="M0,341c1.77-1.25,1.26-3.59,2.55-5.18,1.13-1.39,1.71-3.26,2.43-4.96.48-1.13.55-2.5,1.22-3.49,2.35-3.52,3.61-7.55,5.11-11.39,1.51-3.88,3.42-7.6,4.98-11.44,1.55-3.8,3.25-7.66,4.99-11.43,3.08-6.71,6.09-13.46,8.86-20.32,1.31-3.25,2.74-6.53,4.28-9.72,1.81-3.75,4.09-7.38,5.16-11.34,1.07-3.95,4.21-6.98,4.42-11.19,2.17-2.57,2.7-5.88,4.02-8.83,1.76-3.94,4.08-7.68,5.38-11.76,1.28-4.01,3.48-7.55,4.94-11.47,1.42-3.83,3.47-7.55,5.06-11.39,2.82-6.83,6.17-13.42,8.75-20.38,1.37-3.7,3.39-7.24,4.9-10.96,1.44-3.57,3.68-6.84,4.84-10.48,1.18-3.7,2.96-7.14,4.35-10.71,1.49-3.82,3.49-7.54,5.09-11.38,2.85-6.82,6.17-13.42,8.79-20.36,1.4-3.71,3.34-7.26,4.93-10.95,3.05-7.07,6.66-13.91,9.54-21.04,3.12-7.72,6.65-15.25,9.93-22.89,2.31-5.38,4.88-10.66,7-16.1,1.68-4.32,3.87-8.39,5.54-12.71,1.6-4.16,3.75-8.11,5.51-12.21,1.64-3.82,3.1-7.72,4.7-11.74h25.6c.95,1.66,2.56,3.44,3.02,5.47.81,3.56,2.7,6.57,4.11,9.82,3.14,7.2,6.23,14.42,9.41,21.6,3.36,7.6,6.77,15.19,9.98,22.86,3.27,7.82,6.88,15.49,10.16,23.29,1.73,4.12,3.77,8.1,5.44,12.25,1.67,4.14,3.62,8.17,5.26,12.32,3.46,8.74,7.88,17.05,11.05,25.92,1.45,4.04,3.79,7.76,5.55,11.69,1.51,3.37,2.96,6.79,4.11,10.29,1.11,3.39,3.34,6.19,4.22,9.78.9,3.66,3.19,6.98,4.82,10.47,1.7,3.63,3.89,7.14,4.85,10.96.97,3.84,4.15,6.68,4.29,10.75,3.54,6.17,5.59,13.02,8.82,19.35,1.6,3.14,2.86,6.49,4.01,9.83,1.16,3.37,3.06,6.39,4.38,9.69,1.53,3.81,3.06,7.73,5.02,11.42,1.74,3.26,3.56,6.58,4.51,10.11.99,3.65,3.42,6.54,4.32,10.26.62,2.55,2.25,5.02,3.27,7.61,1.36,3.43,3.09,6.72,4.52,10.13,3.04,7.24,6.36,14.35,9.36,21.62,1.75,4.25,3.64,8.49,5.62,12.67,2.17,4.59,4.03,9.33,6.05,13.99.3.7.78,1.31,1.23,2.04-4.27.95-55.97,1.26-78.04.51-1.71-4.04-3.41-8.18-5.21-12.26-1.25-2.82-3.29-5.45-3.81-8.38-.57-3.19-2.64-5.55-3.39-8.67-.99-4.1-3.79-7.73-5.38-11.73-2.38-6.01-5.5-11.72-7.41-17.93-.27-.88-.62-1.78-1.15-2.52-2.31-3.19-3.28-6.99-4.75-10.54-1.41-3.4-3.27-6.61-4.22-10.27-.76-2.92-2.66-5.55-4.12-8.43H52.96c-1.58,3.55-3.27,7.35-4.96,11.16-.56,1.27-1.09,2.55-1.63,3.82-.95,2.27-1.91,4.54-2.82,6.83-.86,2.14-2.12,4.05-2.71,6.4-.58,2.29-2.2,4.33-2.93,6.77-.93,3.07-2.54,5.94-3.91,8.87-3.32,7.12-6.43,14.33-9.24,21.67-1.54,4.02-3.83,7.74-5.56,11.69-1.98,4.51-3.73,9.12-5.55,13.64H0v-1ZM128.47,78.93c-.5.66-1.28,1.23-1.42,1.93-.76,3.85-3.02,7.08-4.29,10.74-1.41,4.05-4.02,7.68-5.47,11.72-3.17,8.87-7.5,17.22-11.07,25.91-3.1,7.55-6.25,15.09-9.65,22.49-3.22,7-5.83,14.27-9.51,21.06-1.53,2.83-2.72,5.92-3.85,8.89-1.27,3.32-2.91,6.47-4.17,9.78-1.32,3.45-2.72,6.88-4.24,10.24-1.78,3.93-4.04,7.67-5.57,11.69-2.8,7.35-5.93,14.54-9.21,21.68-.82,1.79-1.44,3.67-2.25,5.78h141.21c-.39-.67-.74-1.13-.97-1.66-1.98-4.51-3.91-9.04-5.9-13.55-1.86-4.23-3.88-8.39-5.6-12.67-1.04-2.59-2.57-5.03-3.34-7.59-1.09-3.6-2.96-6.79-4.22-10.27-1.25-3.47-2.91-6.79-4.51-10.12-1.54-3.2-3.02-6.47-4.27-9.72-2.31-6.05-5.13-11.88-7.44-17.92-1.54-4.02-4.03-7.68-5.47-11.72-.9-2.52-2.61-4.78-3.06-7.19-.57-3.05-2.61-5.27-3.32-8.19-.71-2.94-2.39-5.65-3.64-8.47-3.29-7.47-6.6-14.92-9.61-22.51-2.73-6.86-6.06-13.48-9.16-20.3Z" style="fill: #04b3ad; stroke-width: 0px;"/>
  <path d="M1785,471c-.26-.33-.5-.93-.8-.96-3.35-.4-6.8-.35-10.06-1.12-5.13-1.23-10.34-2.26-15.35-3.94-6.14-2.06-12.04-4.75-17.84-7.6-7.68-3.77-14.98-8.27-22.09-13.04-5.63-3.78-11.23-7.61-16.64-11.68-4.25-3.19-8.06-6.98-12.32-10.15-4.62-3.44-8.81-7.38-13.52-10.71-3.93-2.78-7.41-6.19-11.25-9.1-4.53-3.43-9.18-6.72-13.89-9.9-7.09-4.79-14.32-9.37-22.05-13.12-5.72-2.77-11.71-4.75-17.74-6.64-3.95-1.24-7.96-2.16-12.16-2.04-3.83.11-7.67-.15-11.49.06-8.75.47-16.84,3.2-24.19,7.91-3.93,2.52-7.82,5.19-10.82,8.83-2.42,2.93-4.76,5.97-6.72,9.21-1.66,2.75-3.33,5.74-3.93,8.82-.94,4.82-2.75,9.58-2.03,15.01-1.67.06-3.26.14-4.85.17-1.64.03-3.29,0-5.13,0-.57-7.58.77-14.49,3.57-21.48,2.1-5.24,5.28-9.51,8.27-14.08,3.73-5.69,9.14-9.42,14.43-13.32,5.67-4.18,12.12-6.85,18.74-9.03,2.48-.82,5.18-1.45,7.55-2.33,2.43-.91,5.25.27,7.26-1.75,4.67-.73,22.56-1.81,26.54-.85,2.57.62,5.06.85,7.62.83,2.59-.02,4.92,1.69,7.58,1.02,4.75,2.06,10.29,1.19,14.84,4,4.76.29,8.91,2.61,13.35,3.94,4.31,1.29,8.35,3.18,12.51,4.81,4.89,1.91,9.68,4,14.4,6.26,4.73,2.26,9.46,4.54,14.09,7.01,6.7,3.57,13.4,7.15,19.93,11.01,9.33,5.52,19.29,9.8,28.87,14.82,2.62,1.37,5.57,2.55,8.64,3.28,2.93.7,5.49,2.85,8.4,3.78,2.95.94,5.85,2.48,8.76,2.87,5.19.68,10.03,2.62,15.18,3.45,3.88.63,7.85.81,11.74,1.6,3.84.78,8.02.59,11.95.07,6.48-.85,13.04-1.71,18.93-4.91,5.53-3.01,11.28-5.73,15.66-10.46,6.51-7.03,11.61-14.84,13.06-24.58,2.01-3.35.44-7.06,1.15-10.61.4-.4.87-.87,1.35-1.35,3.17,0,6.33,0,9.5,0v14c-.33.43-.92.84-.95,1.29-.12,1.65.44,3.52-.14,4.94-1.61,3.97-1.67,8.23-2.8,12.28-1.25,4.47-2.35,9.04-4.4,13.14-3.61,7.23-7.04,14.55-12.47,20.81-4.47,5.15-9.9,10.72-15.34,14.6-5.1,3.64-10.59,6.39-16.29,8.86-2.84,1.23-13.37,3.85-16.25,4.12-1.38.13-2.7.76-4.08.93-1.62.2-3.28.11-4.92.22-.13,0-.24.53-.35.82-3.67,0-7.33,0-11,0Z" style="fill: #04b3ad; stroke-width: 0px;"/>
  <path d="M1674,1h-8V0h8v1Z" style="fill: #13b7b2; stroke-width: 0px;"/>
  <path d="M1666,0v1h-3V0h3Z" style="fill: #22bcb7; stroke-width: 0px;"/>
  <path d="M1661,1c-.76-.15-1.91.5-2-1h2v1Z" style="fill: #49c8c3; stroke-width: 0px;"/>
  <path d="M1661,1V0h2v1h-2Z" style="fill: #36c2bd; stroke-width: 0px;"/>
  <path d="M1674,1V0h2v1h-2Z" style="fill: #23bcb7; stroke-width: 0px;"/>
  <path d="M1676,1V0h2v1h-2Z" style="fill: #30c1bc; stroke-width: 0px;"/>
  <path d="M1678,1V0h2v1h-2Z" style="fill: #45c7c2; stroke-width: 0px;"/>
  <path d="M1680,1V0h2c-.09,1.5-1.24.85-2,1Z" style="fill: #5dceca; stroke-width: 0px;"/>
  <path d="M629.73,102.65c-.29,1.85-.71,3.24-.69,4.61.15,9.18-2.29,17.66-5.72,26.14-2.74,6.78-6.38,12.78-10.68,18.6-4.56,6.17-10.04,11.49-15.76,16.35-7.11,6.04-15.35,10.61-23.82,14.74-7.25,3.54-14.93,5.81-22.4,8.7-1.71.66-3.63.79-6.45,1.37,8.54,3.56,13.58,9.95,18.97,15.76,2.7,2.91,4.96,6.42,6.92,10.05,2.16,3.99,5.12,7.55,7.69,11.33,7.08,10.4,14.29,20.71,21.11,31.28,1.69,2.62,3.83,4.91,5.23,7.8,1.43,2.95,3.93,5.36,5.82,8.1,1.76,2.57,3.24,5.34,4.99,7.92,4.31,6.39,8.86,12.63,13,19.13,2.28,3.58,4.91,6.9,7.11,10.53,2.19,3.63,4.81,6.99,7.07,10.58,2.91,4.64,6.35,8.94,8.92,13.79.43.81,1.28,1.4,2.18,2.35h-80.77c-2.47-4.03-4.83-8.45-7.75-12.45-1.87-2.56-2.96-5.54-4.9-7.99-1.96-2.48-3.25-5.39-5.04-7.89-4.02-5.63-7.47-11.6-11.17-17.41-3.27-5.13-6.46-10.33-9.76-15.41-3.84-5.91-7.62-11.88-11.41-17.82-3.19-4.99-6.57-9.86-9.51-15.03-3.55-6.26-7.85-12.08-11.74-18.15-3.12-4.86-6.06-9.83-9.18-14.69-3.64-5.69-7.39-11.32-11-16.84h-47.86v143.67h-74V6.38c.32-.32.67-.67,1.38-1.38h2c48.83,0,97.66-.03,146.49.04,5.03,0,10.06.64,15.09.95,1.91.12,3.53,1.27,5.59,1.11,1.82-.14,3.72.57,5.58.9,1.86.33,3.72.67,5.59,1,1.86.33,3.86.34,5.56,1.06,5.13,2.17,10.53,3.49,15.74,5.44,9.67,3.61,18.51,8.64,27.11,14.23,8.07,5.24,14.6,12.2,20.98,19.2,5.9,6.48,10.11,14.33,13.36,22.41,2.17,5.42,4.6,11.03,4.41,17.17,1.73,3.74.71,7.72,1.03,11.58.07.9.48,1.77.7,2.56ZM433.08,188h9.94c9,0,18,.14,26.99-.04,9.03-.18,18.11.9,27.08-.95,2.16-.45,4.45-.48,6.52-1.18,9.26-3.1,17.82-7.55,25.13-14.11,3.74-3.36,6.55-7.53,9.54-11.53,3.64-4.88,5.64-10.68,8.72-15.88.31-4.09,2.35-7.72,3.25-11.7.88-3.91.91-8.11,2.75-11.81-.77-4.61,1.3-8.99,1.03-13.58-.18-3.15.11-6.34-.08-9.49-.17-2.87.4-5.69-.8-8.65-1.11-2.73.78-6.17-1.16-9.02.63-4.43-2.06-8.32-2.07-12.64-3.13-6.69-4.76-13.94-8.78-20.39-5.1-8.19-10.85-15.59-18.76-21.07-9.86-6.83-20.69-11.03-32.92-10.99-17.16.06-34.32.01-51.48.01h-4.91v173Z" style="fill: #04b3ad; stroke-width: 0px;"/>
  <path d="M1089.09,341.82V6.41c.45-.45.8-.8,1.28-1.28h237.42v9.85h-164.62v155.7c-.06-.07.03.08.17.17.12.08.29.16.43.16,41.64,0,83.28,0,124.72,0,.54.54.9.9,1.38,1.38v8.58h-126.85v160.87h-73.93Z" style="fill: #04b3ad; stroke-width: 0px;"/>
  <path d="M633.1,15.17V5.15h277.74c.05,1.42.13,3.02.15,4.62.03,1.64,0,3.28,0,5.08h-101.85v326.97h-73.98V15.17h-102.07Z" style="fill: #04b3ad; stroke-width: 0px;"/>
  <path d="M1022.92,5.18v336.65h-73.44c-.77-4.41-1.11-316.23-.33-336.65h73.77Z" style="fill: #04b3ad; stroke-width: 0px;"/>
  <path d="M1440.83,341.91h-73.67V5.51c3.98-.76,57.45-1.04,73.67-.34v336.74Z" style="fill: #04b3ad; stroke-width: 0px;"/>
</svg>